<mxfile host="app.diagrams.net" modified="2024-07-18T06:05:12.513Z" agent="Mozilla/5.0 (Macintosh; Intel Mac OS X 10_15_7) AppleWebKit/537.36 (KHTML, like Gecko) Chrome/126.0.0.0 Safari/537.36" etag="1HjlkqERtm8_mD4UNe6J" version="24.6.5" type="device">
  <diagram name="Page-1" id="tbl8idqNOpp6RMVJ-Pqn">
    <mxGraphModel dx="1209" dy="825" grid="1" gridSize="10" guides="1" tooltips="1" connect="1" arrows="1" fold="1" page="1" pageScale="1" pageWidth="850" pageHeight="1100" math="0" shadow="0">
      <root>
        <mxCell id="0" />
        <mxCell id="1" parent="0" />
        <mxCell id="PxS_wZHe_Lk2CqLkdEdm-1" style="edgeStyle=orthogonalEdgeStyle;rounded=0;orthogonalLoop=1;jettySize=auto;html=1;exitX=1;exitY=0.5;exitDx=0;exitDy=0;entryX=0;entryY=0.5;entryDx=0;entryDy=0;fontFamily=Times New Roman;fontSize=16;" edge="1" parent="1" source="PxS_wZHe_Lk2CqLkdEdm-2" target="PxS_wZHe_Lk2CqLkdEdm-4">
          <mxGeometry relative="1" as="geometry" />
        </mxCell>
        <mxCell id="PxS_wZHe_Lk2CqLkdEdm-2" value="Application &lt;br style=&quot;font-size: 16px;&quot;&gt;or code change" style="shape=step;perimeter=stepPerimeter;whiteSpace=wrap;html=1;fixedSize=1;fontFamily=Times New Roman;fontSize=16;" vertex="1" parent="1">
          <mxGeometry x="80" y="310" width="140" height="80" as="geometry" />
        </mxCell>
        <mxCell id="PxS_wZHe_Lk2CqLkdEdm-3" style="edgeStyle=orthogonalEdgeStyle;rounded=0;orthogonalLoop=1;jettySize=auto;html=1;exitX=1;exitY=0.5;exitDx=0;exitDy=0;entryX=0;entryY=0.5;entryDx=0;entryDy=0;fontFamily=Times New Roman;fontSize=16;" edge="1" parent="1" source="PxS_wZHe_Lk2CqLkdEdm-4" target="PxS_wZHe_Lk2CqLkdEdm-15">
          <mxGeometry relative="1" as="geometry" />
        </mxCell>
        <mxCell id="PxS_wZHe_Lk2CqLkdEdm-4" value="Build image" style="shape=step;perimeter=stepPerimeter;whiteSpace=wrap;html=1;fixedSize=1;fontFamily=Times New Roman;fontSize=16;" vertex="1" parent="1">
          <mxGeometry x="220" y="310" width="140" height="80" as="geometry" />
        </mxCell>
        <mxCell id="PxS_wZHe_Lk2CqLkdEdm-5" style="edgeStyle=orthogonalEdgeStyle;rounded=0;orthogonalLoop=1;jettySize=auto;html=1;exitX=1;exitY=0.5;exitDx=0;exitDy=0;entryX=0;entryY=0.5;entryDx=0;entryDy=0;fontFamily=Times New Roman;fontSize=16;" edge="1" parent="1" source="PxS_wZHe_Lk2CqLkdEdm-6" target="PxS_wZHe_Lk2CqLkdEdm-9">
          <mxGeometry relative="1" as="geometry" />
        </mxCell>
        <mxCell id="PxS_wZHe_Lk2CqLkdEdm-6" value="Update cloud infrastrucutre" style="shape=step;perimeter=stepPerimeter;whiteSpace=wrap;html=1;fixedSize=1;fontFamily=Times New Roman;fontSize=16;" vertex="1" parent="1">
          <mxGeometry x="510" y="310" width="140" height="80" as="geometry" />
        </mxCell>
        <mxCell id="PxS_wZHe_Lk2CqLkdEdm-7" style="edgeStyle=orthogonalEdgeStyle;rounded=0;orthogonalLoop=1;jettySize=auto;html=1;exitX=0.5;exitY=0;exitDx=0;exitDy=0;entryX=0.443;entryY=0;entryDx=0;entryDy=0;entryPerimeter=0;fontFamily=Times New Roman;fontSize=16;" edge="1" parent="1" source="PxS_wZHe_Lk2CqLkdEdm-9" target="PxS_wZHe_Lk2CqLkdEdm-6">
          <mxGeometry relative="1" as="geometry">
            <Array as="points">
              <mxPoint x="730" y="280" />
              <mxPoint x="572" y="280" />
            </Array>
          </mxGeometry>
        </mxCell>
        <mxCell id="PxS_wZHe_Lk2CqLkdEdm-8" style="edgeStyle=orthogonalEdgeStyle;rounded=0;orthogonalLoop=1;jettySize=auto;html=1;" edge="1" parent="1" source="PxS_wZHe_Lk2CqLkdEdm-9" target="PxS_wZHe_Lk2CqLkdEdm-12">
          <mxGeometry relative="1" as="geometry" />
        </mxCell>
        <mxCell id="PxS_wZHe_Lk2CqLkdEdm-9" value="Running scan infrastrucutres" style="shape=step;perimeter=stepPerimeter;whiteSpace=wrap;html=1;fixedSize=1;fontFamily=Times New Roman;fontSize=16;" vertex="1" parent="1">
          <mxGeometry x="660" y="310" width="140" height="80" as="geometry" />
        </mxCell>
        <mxCell id="PxS_wZHe_Lk2CqLkdEdm-10" style="edgeStyle=orthogonalEdgeStyle;rounded=0;orthogonalLoop=1;jettySize=auto;html=1;exitX=1;exitY=0.5;exitDx=0;exitDy=0;fontFamily=Times New Roman;fontSize=16;" edge="1" parent="1" source="PxS_wZHe_Lk2CqLkdEdm-12" target="PxS_wZHe_Lk2CqLkdEdm-16">
          <mxGeometry relative="1" as="geometry" />
        </mxCell>
        <mxCell id="PxS_wZHe_Lk2CqLkdEdm-11" style="edgeStyle=orthogonalEdgeStyle;rounded=0;orthogonalLoop=1;jettySize=auto;html=1;exitX=0.5;exitY=1;exitDx=0;exitDy=0;entryX=0.5;entryY=1;entryDx=0;entryDy=0;fontFamily=Times New Roman;fontSize=16;" edge="1" parent="1" source="PxS_wZHe_Lk2CqLkdEdm-12" target="PxS_wZHe_Lk2CqLkdEdm-2">
          <mxGeometry relative="1" as="geometry" />
        </mxCell>
        <mxCell id="PxS_wZHe_Lk2CqLkdEdm-12" value="&lt;span style=&quot;color: rgb(26, 32, 44); font-size: 16px; text-align: left; background-color: rgb(255, 255, 255);&quot;&gt;Post-deployment compliance scanning&lt;/span&gt;" style="shape=step;perimeter=stepPerimeter;whiteSpace=wrap;html=1;fixedSize=1;fontFamily=Times New Roman;fontSize=16;" vertex="1" parent="1">
          <mxGeometry x="822" y="310" width="183" height="80" as="geometry" />
        </mxCell>
        <mxCell id="PxS_wZHe_Lk2CqLkdEdm-13" style="edgeStyle=orthogonalEdgeStyle;rounded=0;orthogonalLoop=1;jettySize=auto;html=1;exitX=0.5;exitY=0;exitDx=0;exitDy=0;entryX=0.5;entryY=0;entryDx=0;entryDy=0;fontFamily=Times New Roman;fontSize=16;" edge="1" parent="1" source="PxS_wZHe_Lk2CqLkdEdm-15" target="PxS_wZHe_Lk2CqLkdEdm-2">
          <mxGeometry relative="1" as="geometry">
            <Array as="points">
              <mxPoint x="430" y="280" />
              <mxPoint x="150" y="280" />
            </Array>
          </mxGeometry>
        </mxCell>
        <mxCell id="PxS_wZHe_Lk2CqLkdEdm-14" style="edgeStyle=orthogonalEdgeStyle;rounded=0;orthogonalLoop=1;jettySize=auto;html=1;exitX=1;exitY=0.5;exitDx=0;exitDy=0;fontFamily=Times New Roman;fontSize=16;" edge="1" parent="1" source="PxS_wZHe_Lk2CqLkdEdm-15" target="PxS_wZHe_Lk2CqLkdEdm-6">
          <mxGeometry relative="1" as="geometry" />
        </mxCell>
        <mxCell id="PxS_wZHe_Lk2CqLkdEdm-15" value="Scan&lt;br style=&quot;font-size: 16px;&quot;&gt;image or AMI" style="shape=step;perimeter=stepPerimeter;whiteSpace=wrap;html=1;fixedSize=1;fontFamily=Times New Roman;fontSize=16;" vertex="1" parent="1">
          <mxGeometry x="360" y="310" width="140" height="80" as="geometry" />
        </mxCell>
        <mxCell id="PxS_wZHe_Lk2CqLkdEdm-16" value="Deloy" style="shape=step;perimeter=stepPerimeter;whiteSpace=wrap;html=1;fixedSize=1;fontFamily=Times New Roman;fontSize=16;" vertex="1" parent="1">
          <mxGeometry x="1018" y="310" width="140" height="80" as="geometry" />
        </mxCell>
        <mxCell id="PxS_wZHe_Lk2CqLkdEdm-17" value="AWS CodeBuild" style="whiteSpace=wrap;html=1;aspect=fixed;fillColor=#dae8fc;strokeColor=#6c8ebf;" vertex="1" parent="1">
          <mxGeometry x="250" y="120" width="80" height="80" as="geometry" />
        </mxCell>
        <mxCell id="PxS_wZHe_Lk2CqLkdEdm-18" value="AWS CodeBuild" style="whiteSpace=wrap;html=1;aspect=fixed;fillColor=#dae8fc;strokeColor=#6c8ebf;" vertex="1" parent="1">
          <mxGeometry x="110" y="480" width="80" height="80" as="geometry" />
        </mxCell>
        <mxCell id="PxS_wZHe_Lk2CqLkdEdm-19" value="AWS CodeBuild" style="whiteSpace=wrap;html=1;aspect=fixed;fillColor=#dae8fc;strokeColor=#6c8ebf;" vertex="1" parent="1">
          <mxGeometry x="390" y="480" width="80" height="80" as="geometry" />
        </mxCell>
        <mxCell id="PxS_wZHe_Lk2CqLkdEdm-20" value="AWS CodeBuild" style="whiteSpace=wrap;html=1;aspect=fixed;fillColor=#dae8fc;strokeColor=#6c8ebf;" vertex="1" parent="1">
          <mxGeometry x="690" y="480" width="80" height="80" as="geometry" />
        </mxCell>
        <mxCell id="PxS_wZHe_Lk2CqLkdEdm-21" value="AWS CodeBuild" style="whiteSpace=wrap;html=1;aspect=fixed;fillColor=#dae8fc;strokeColor=#6c8ebf;" vertex="1" parent="1">
          <mxGeometry x="873.5" y="480" width="80" height="80" as="geometry" />
        </mxCell>
        <mxCell id="PxS_wZHe_Lk2CqLkdEdm-22" value="" style="endArrow=classic;html=1;rounded=0;exitX=0.5;exitY=0;exitDx=0;exitDy=0;entryX=0.5;entryY=1;entryDx=0;entryDy=0;" edge="1" parent="1" source="PxS_wZHe_Lk2CqLkdEdm-4" target="PxS_wZHe_Lk2CqLkdEdm-17">
          <mxGeometry width="50" height="50" relative="1" as="geometry">
            <mxPoint x="460" y="170" as="sourcePoint" />
            <mxPoint x="450" y="250" as="targetPoint" />
          </mxGeometry>
        </mxCell>
        <mxCell id="PxS_wZHe_Lk2CqLkdEdm-23" value="" style="endArrow=classic;html=1;rounded=0;entryX=0.5;entryY=0;entryDx=0;entryDy=0;" edge="1" parent="1" target="PxS_wZHe_Lk2CqLkdEdm-18">
          <mxGeometry width="50" height="50" relative="1" as="geometry">
            <mxPoint x="150" y="410" as="sourcePoint" />
            <mxPoint x="260" y="440" as="targetPoint" />
          </mxGeometry>
        </mxCell>
        <mxCell id="PxS_wZHe_Lk2CqLkdEdm-24" value="" style="endArrow=classic;html=1;rounded=0;entryX=0.5;entryY=0;entryDx=0;entryDy=0;exitX=0.5;exitY=1;exitDx=0;exitDy=0;" edge="1" parent="1" source="PxS_wZHe_Lk2CqLkdEdm-15" target="PxS_wZHe_Lk2CqLkdEdm-19">
          <mxGeometry width="50" height="50" relative="1" as="geometry">
            <mxPoint x="440" y="390" as="sourcePoint" />
            <mxPoint x="440" y="460" as="targetPoint" />
          </mxGeometry>
        </mxCell>
        <mxCell id="PxS_wZHe_Lk2CqLkdEdm-25" value="" style="endArrow=classic;html=1;rounded=0;entryX=0.5;entryY=0;entryDx=0;entryDy=0;exitX=0.5;exitY=1;exitDx=0;exitDy=0;" edge="1" parent="1">
          <mxGeometry width="50" height="50" relative="1" as="geometry">
            <mxPoint x="729.38" y="390" as="sourcePoint" />
            <mxPoint x="729.38" y="480" as="targetPoint" />
          </mxGeometry>
        </mxCell>
        <mxCell id="PxS_wZHe_Lk2CqLkdEdm-26" value="" style="endArrow=classic;html=1;rounded=0;entryX=0.5;entryY=0;entryDx=0;entryDy=0;exitX=0.5;exitY=1;exitDx=0;exitDy=0;" edge="1" parent="1">
          <mxGeometry width="50" height="50" relative="1" as="geometry">
            <mxPoint x="912.88" y="390" as="sourcePoint" />
            <mxPoint x="912.88" y="480" as="targetPoint" />
          </mxGeometry>
        </mxCell>
      </root>
    </mxGraphModel>
  </diagram>
</mxfile>
